<svg width="1515" height="280" viewBox="0 0 1515 280" fill="none" xmlns="http://www.w3.org/2000/svg">
<path d="M354.892 72.5269C375.889 72.1322 388.755 63.2129 388.755 35.5865C388.755 14.1958 402.016 1.72451 418.356 1.72451C423.802 1.32985 433.116 2.51384 442.115 6.38153L457.665 12.2225C475.978 19.2475 505.895 22.7205 524.602 9.14416C533.127 3.30316 543.31 -1.35385 555.308 2.9085C565.412 6.38153 573.226 15.7745 574.726 26.2725C576.699 37.9545 572.358 48.0579 563.833 54.6882C535.022 80.3412 565.412 148.855 570.858 156.59C574.331 164.01 575.515 166.693 575.515 172.14C575.515 188.479 563.044 201.345 547.493 202.134C532.732 203.713 517.893 200.95 512.052 244.915C510.078 261.254 498.396 273.331 482.056 273.331C482.056 273.726 418.987 273.726 418.987 273.726C402.253 273.726 388.992 261.649 388.676 244.521C387.097 173.324 331.448 120.044 331.448 120.044C329.08 116.571 327.186 113.414 326.396 109.941C319.845 89.2606 335.395 72.9216 354.892 72.5269ZM375.889 123.517C355.681 141.83 383.308 214.132 436.195 213.421H488.687C496.107 213.421 503.842 213.816 510.473 211.448C513.551 210.659 516.709 207.975 518.998 204.818C524.839 196.293 514.735 190.452 515.525 172.534C515.919 164.325 520.182 158.169 524.444 151.144C532.654 138.278 564.543 93.2072 525.628 54.2935C479.293 7.64445 453.64 25.4832 446.22 41.0329C441.168 52.3202 431.459 61.6342 418.198 61.6342C415.83 61.6342 413.146 61.2396 411.173 60.8449C389.781 55.0039 388.202 49.1629 384.729 102.442C384.414 110.257 380.94 117.676 375.889 123.517Z" fill="white"/>
<path d="M864.97 243.731C864.575 260.86 850.604 274.831 833.475 273.726C820.214 272.936 809.321 260.465 805.058 247.678C779.01 163.615 701.18 140.33 656.818 132.121C648.609 130.937 641.663 130.937 632.664 127.464C624.85 124.386 614.746 114.203 614.351 102.6C613.957 88.9449 622.876 75.7631 636.532 73.0005C641.189 71.8165 647.425 72.2112 654.845 72.2112C690.603 72.6059 755.25 69.1328 743.963 43.0062V42.6115C717.914 -8.77347 681.288 33.6922 669.29 48.0579C664.633 53.5042 656.818 61.3185 644.426 61.7132C626.902 62.1078 612.93 46.1635 614.43 28.6405C615.614 13.4855 628.796 1.40881 644.031 1.40881C665.422 1.40881 684.525 20.4315 751.777 5.2765C762.67 2.90853 770.485 0.619489 777.036 1.80348C789.508 4.17145 799.217 14.6695 801.191 27.0618C803.559 43.7955 791.482 56.6615 775.931 61.3185C758.013 66.3702 705.521 76.0789 681.367 85.0772C667.711 90.5235 661.16 102.995 674.737 113.098C714.046 142.698 827.239 203.713 850.604 215.789C864.97 224.709 865.286 239.074 864.97 243.731ZM673.868 173.324V243.731C673.868 260.465 660.213 274.041 643.557 273.726C627.218 273.331 614.351 259.36 614.351 242.626V174.113C614.351 157.379 627.218 143.408 643.557 143.014C660.291 142.619 673.868 156.195 673.868 173.324Z" fill="white"/>
<path d="M891.413 48.8473C890.624 44.5849 888.651 35.9813 888.651 31.3243C888.651 14.9853 902.306 1.32996 918.646 1.32996C934.985 1.32996 948.641 14.9063 948.641 31.3243C948.641 35.9813 947.457 40.2436 945.879 43.7956C941.616 53.1096 862.997 215.395 917.067 213.816H983.609C999.949 214.605 1012.82 228.576 1012.03 244.915C1011.24 261.649 997.66 273.331 980.926 273.726H918.646C902.306 273.726 889.835 259.36 888.651 243.731C885.177 197.793 906.174 112.23 891.413 48.8473Z" fill="white"/>
<path d="M1167.05 257.623C1166.34 257.308 1162.95 255.65 1158.13 253.677C1156.87 253.203 1155.37 252.651 1153.56 252.098C1141.48 248.546 1131.14 249.414 1126.48 249.888C1126.48 249.888 1103.12 251.861 1085.59 266.227C1085.59 266.227 1085.51 266.306 1085.44 266.385C1085.12 266.622 1084.57 267.095 1083.78 267.648C1081.33 269.384 1076.83 271.989 1070.91 273.252C1068.54 273.726 1066.18 273.805 1063.41 273.647C1047.07 273.252 1034.6 258.492 1035.79 241.363C1036.18 237.496 1036.97 233.944 1038.47 230.865C1054.02 195.03 1119.77 67.8699 1066.1 61.2396C1049.44 59.2663 1040.44 51.1362 1036.57 38.6649C1031.92 22.3259 1044.31 0.145897 1066.1 1.32988C1082.44 2.11921 1094.51 13.7223 1096.09 31.2453C1096.88 42.5326 1090.25 159.195 1090.65 210.185C1090.65 215.158 1091.36 224.945 1098.14 232.128C1104.7 239.074 1113.93 240.179 1117.17 240.574C1141.4 243.495 1187.89 212.711 1216.15 163.457C1247.17 109.231 1236.68 66.607 1233.99 60.2135C1233.6 59.2663 1233.2 58.398 1233.2 58.398C1231.78 55.3986 1225.78 43.1641 1212.99 38.1124C1192.71 30.2191 1169.74 45.7688 1167.13 47.5054C1166.27 48.0579 1165.48 48.6104 1164.61 49.2419C1159.4 53.1885 1148.82 60.8449 1136.59 61.2396C1118.27 61.6343 1103.91 44.427 1107.38 25.4832C1109.35 14.5905 1117.88 5.67117 1128.77 2.51387C1132.64 1.32988 1136.19 0.935221 1139.66 1.32988C1143.14 1.72455 1148.19 2.8296 1150.95 4.01359C1161.06 8.27594 1191.45 14.3537 1212.13 14.9063C1245.91 15.8534 1255.7 2.43494 1272.2 12.3015C1272.2 12.3015 1282.22 18.0636 1287.27 31.0874C1293.59 47.5054 1280.56 74.6581 1280.56 74.6581C1238.65 158.326 1205.57 171.824 1202.97 215.474C1202.18 229.445 1204.31 249.493 1193.1 256.203C1186.39 260.228 1173.05 260.544 1167.05 257.623Z" fill="white"/>
<path d="M279.351 72.1322C262.222 72.5269 250.934 86.5769 249.435 102.837V118.466C249.435 118.466 251.408 183.427 239.331 206.002C230.806 223.446 213.677 222.341 205.152 210.264C196.627 198.977 188.418 169.377 182.971 107.178C181.866 89.892 170.263 78.4468 154.713 77.7364C139.241 78.4468 127.559 89.971 126.454 107.178C121.007 169.456 112.798 198.977 104.273 210.264C95.7482 222.341 78.6193 223.446 70.0943 206.002C58.0172 183.427 59.9906 118.466 59.9906 118.466V31.8767C58.4119 15.6166 47.1242 1.56665 29.9953 1.17199C13.6558 0.777323 0 11.67 0 31.1663V107.178C0 123.123 12.8664 129.753 19.0233 135.199C64.5688 174.902 59.9117 202.529 63.7795 254.624C64.9635 269.384 76.9616 279.093 93.3801 279.093C109.72 278.698 121.797 265.832 122.981 249.888C124.559 221.867 123.77 190.768 127.243 165.115C129.927 146.25 142.162 136.936 154.713 136.857C167.263 137.015 179.498 146.25 182.182 165.115C185.655 190.768 184.866 221.946 186.445 249.888C187.629 265.832 199.706 278.698 216.045 279.093C232.385 279.093 244.462 269.384 245.646 254.624C249.514 202.45 244.856 174.823 290.402 135.199C296.638 129.753 309.425 123.123 309.425 107.178V102.048C309.346 82.6302 295.77 71.7376 279.351 72.1322Z" fill="white"/>
<path d="M280.797 61.2878C297.347 60.5371 310.154 46.5131 309.403 29.9643C308.653 13.4154 294.628 0.608459 278.079 1.3591C261.53 2.10975 248.722 16.1337 249.473 32.6826C250.223 49.2314 264.248 62.0384 280.797 61.2878Z" fill="white"/>
<path id="plus-icon" d="M1485.08 107.494C1458.32 107.494 1463.38 131.568 1433.14 131.568C1416.41 131.568 1402.91 117.992 1402.91 101.337V99.8375C1402.99 73.3951 1421.54 73.8687 1425.41 55.7932C1429.36 37.6388 1416.33 19.6422 1397.86 18.695C1380.49 17.8267 1366.05 31.7188 1366.05 48.5314C1366.05 75.2895 1390.12 70.2379 1390.12 100.469V101.258C1390.12 117.992 1376.55 131.489 1359.89 131.489H1359.1C1328.87 131.489 1333.92 107.415 1307.16 107.415C1290.35 107.415 1276.46 121.86 1277.33 139.225C1278.27 157.774 1296.27 170.719 1314.43 166.772C1332.58 162.826 1332.03 144.355 1358.47 144.276H1359.89C1376.63 144.276 1390.12 157.853 1390.12 174.508C1390.12 204.739 1366.05 199.687 1366.05 226.445C1366.05 243.258 1380.49 257.15 1397.86 256.282C1416.41 255.334 1429.36 237.338 1425.41 219.183C1421.46 201.029 1402.99 201.581 1402.91 175.139V174.508C1402.91 157.774 1416.49 144.276 1433.14 144.276H1433.78C1460.22 144.355 1459.75 162.905 1477.82 166.772C1495.98 170.719 1513.97 157.695 1514.92 139.225C1515.79 121.86 1501.9 107.494 1485.08 107.494Z" fill="white"/>
</svg>
